<svg xmlns="http://www.w3.org/2000/svg" viewBox="0 0 1600 480" role="img" aria-labelledby="title desc">
  <title id="title">Charleston Clean Routine primary logo</title>
  <desc id="desc">Premium Charleston Clean Routine logo with the C and check emblem and Your Home, Handled tagline.</desc>
  <defs>
    <linearGradient id="gC" x1="0" y1="0" x2="1" y2="1"><stop offset="0" stop-color="#0f3d35"/><stop offset="0.52" stop-color="#005b4f"/><stop offset="1" stop-color="#0f3d35"/></linearGradient>
    <linearGradient id="gCheck" x1="0" y1="0" x2="1" y2="1"><stop offset="0" stop-color="#c8e1d8"/><stop offset="0.55" stop-color="#8fbeb0"/><stop offset="1" stop-color="#5f9f8e"/></linearGradient>
    <linearGradient id="gold" x1="0" y1="0" x2="1" y2="1"><stop offset="0" stop-color="#f1d88b"/><stop offset="0.45" stop-color="#c89d45"/><stop offset="1" stop-color="#8f6621"/></linearGradient>
    <filter id="soft" x="-20%" y="-20%" width="140%" height="140%"><feDropShadow dx="0" dy="10" stdDeviation="10" flood-color="#0b332d" flood-opacity=".18"/></filter>
  </defs>
  <g transform="translate(44 38)" filter="url(#soft)">
    <path d="M307 78C276 43 231 26 179 26 91 26 28 88 28 199c0 111 63 173 151 173 53 0 101-19 135-56" fill="none" stroke="url(#gold)" stroke-width="54" stroke-linecap="round"/>
    <path d="M307 78C276 43 231 26 179 26 91 26 28 88 28 199c0 111 63 173 151 173 53 0 101-19 135-56" fill="none" stroke="url(#gC)" stroke-width="45" stroke-linecap="round"/>
    <path d="M94 207l62 66L328 103" fill="none" stroke="url(#gold)" stroke-width="38" stroke-linecap="round" stroke-linejoin="round"/>
    <path d="M94 207l62 66L328 103" fill="none" stroke="url(#gCheck)" stroke-width="29" stroke-linecap="round" stroke-linejoin="round"/>
    <g fill="#497f70" opacity=".9"><path d="M150 142c18-35 20-64 6-91 18 14 28 28 32 43 10-18 25-31 44-38-14 17-20 35-19 54 15-12 34-17 56-14-26 11-44 29-52 54z"/><rect x="178" y="124" width="8" height="79" rx="4"/><path d="M229 192h72M237 180h56M247 168h36" fill="none" stroke="#497f70" stroke-width="4" stroke-linecap="round"/><path d="M238 192l17-44 17 44M270 192l15-34 14 34" fill="none" stroke="#497f70" stroke-width="4"/><path d="M206 159h16v43h-16zM214 126l8 33h-16z"/></g>
  </g>
  <g transform="translate(430 88)">
    <line x1="0" y1="48" x2="170" y2="48" stroke="url(#gold)" stroke-width="4"/><text x="190" y="68" fill="#0f3d35" font-family="Georgia, 'Times New Roman', serif" font-size="67" letter-spacing="14">CHARLESTON</text><line x1="914" y1="48" x2="1080" y2="48" stroke="url(#gold)" stroke-width="4"/>
    <text x="0" y="198" fill="#0f3d35" font-family="Georgia, 'Times New Roman', serif" font-size="118" font-weight="700" letter-spacing="-2">CLEAN ROUTINE</text>
    <line x1="0" y1="236" x2="480" y2="236" stroke="url(#gold)" stroke-width="4"/><g transform="translate(516 220)"><circle cx="0" cy="0" r="7" fill="#c89d45"/><path d="M0 13v32M0 17c-15-7-21-17-19-30 9 3 16 9 19 16 3-8 10-14 20-17 1 13-5 23-20 31z" fill="#c89d45"/><path d="M-18 45h36" stroke="#c89d45" stroke-width="3" stroke-linecap="round"/></g><line x1="552" y1="236" x2="1080" y2="236" stroke="url(#gold)" stroke-width="4"/>
    <text x="102" y="310" fill="#0f3d35" font-family="Arial, Helvetica, sans-serif" font-size="43" font-weight="600" letter-spacing="18">YOUR HOME, HANDLED.</text>
    <path d="M260 346C470 326 690 326 900 346" fill="none" stroke="#b9a6e7" stroke-width="5" stroke-linecap="round" opacity=".9"/>
  </g>
</svg>